<svg xmlns="http://www.w3.org/2000/svg" viewBox="0 6 310 46" width="310" height="46" role="img" aria-label="Takaya Car Group">
<defs><clipPath id="c"><circle cx="132.3" cy="119.4" r="103.9"/></clipPath></defs>
<g transform="translate(-3.919 4.379) scale(0.20913)"><path fill="#F00010" clip-path="url(#c)" d="M133.1 222.3C134.4 221.0 134.4 222.0 134.4 187.6C134.4 152.3 134.4 153.2 132.8 145.0C131.3 137.8 130.7 136.3 128.6 135.1C125.9 133.5 125.1 134.7 126.8 137.9C128.7 141.6 128.5 138.5 128.5 174.7C128.5 213.4 128.7 220.2 129.4 221.6C130.2 223.4 131.7 223.6 133.1 222.3ZM172.3 218.5C174.8 217.9 176.3 217.2 180.9 214.4C183.1 213.1 186.2 211.4 187.8 210.6C193.8 207.6 207.8 195.5 212.1 189.5C213.3 187.9 215.2 185.4 216.4 184.0C217.6 182.6 219.0 180.6 219.6 179.6C220.2 178.7 221.8 176.0 223.2 173.7C225.9 169.4 226.8 167.3 227.9 163.8C228.3 162.6 229.2 160.1 230.1 158.1C233.7 149.7 235.4 140.7 236.2 126.4C237.1 110.7 236.1 102.3 232.8 99.0C230.3 96.5 232.1 96.7 204.7 96.6C178.5 96.5 178.7 96.5 175.2 94.9C172.3 93.6 171.1 92.0 169.1 86.7C167.3 81.5 165.0 83.3 165.0 89.9C165.0 98.5 163.9 103.6 161.7 106.0C159.6 108.2 158.0 108.2 151.8 105.9C146.3 103.9 141.7 102.3 141.5 102.2C141.5 102.2 140.6 101.4 139.5 100.4C136.5 97.5 134.7 96.9 130.2 97.0C122.1 97.4 125.4 101.7 134.7 103.0C139.7 103.7 139.7 103.7 141.7 106.0C143.4 107.8 143.8 108.1 146.4 109.4C150.8 111.5 153.3 114.4 157.1 121.8C157.9 123.5 159.2 125.7 159.8 126.6C164.2 133.4 164.0 130.6 164.1 174.9C164.2 215.2 164.2 213.9 165.6 216.4C167.0 218.8 168.9 219.4 172.3 218.5ZM94.3 218.2C96.3 217.7 97.5 215.9 98.0 212.9C98.2 211.6 98.3 201.7 98.3 178.2C98.2 136.0 98.2 136.4 102.7 131.1C106.5 126.6 110.1 125.8 115.0 128.3C120.0 130.8 121.1 128.7 116.3 125.9C115.1 125.2 114.0 124.4 113.5 123.7C113.0 123.1 111.2 121.1 109.4 119.2C102.3 112.0 101.1 107.5 104.9 103.2C106.8 101.2 107.2 100.4 107.2 99.4C107.2 96.8 104.6 96.6 79.0 96.4C63.0 96.3 57.9 96.1 52.2 95.5C38.6 94.0 30.5 95.9 28.5 101.1C27.0 105.3 26.8 126.8 28.3 140.7C28.6 143.9 29.0 145.4 30.9 150.1C31.7 152.3 33.3 156.6 34.3 159.6C36.5 166.1 37.0 167.1 38.9 170.2C39.7 171.6 41.0 174.0 41.8 175.6C43.3 178.7 43.8 179.5 46.0 182.0C46.8 182.9 48.9 185.7 50.8 188.1C54.8 193.6 57.0 195.9 61.8 199.8C65.7 203.1 70.0 206.7 72.2 208.5C72.9 209.2 75.0 210.5 76.8 211.4C78.6 212.3 81.3 213.8 82.8 214.7C88.3 218.0 91.6 219.0 94.3 218.2ZM162.1 76.7C162.5 75.7 162.3 74.2 161.2 70.3C159.4 63.4 160.3 61.5 166.2 60.1C168.2 59.6 184.9 59.5 197.0 60.0C208.6 60.5 211.0 60.2 213.0 58.1C215.4 55.5 214.2 51.9 209.3 47.2C203.9 42.0 202.4 40.7 199.0 38.0C194.7 34.6 194.0 34.1 190.2 31.9C188.7 31.0 186.2 29.6 184.8 28.6C181.6 26.6 179.5 25.6 175.5 24.1C173.9 23.6 171.4 22.5 170.0 21.9C164.3 19.3 160.3 18.3 152.4 17.5C149.6 17.2 145.8 16.8 143.9 16.6C137.0 15.7 124.4 15.9 115.7 17.1C103.1 18.7 100.9 19.2 95.2 21.9C93.4 22.7 90.6 23.9 88.9 24.5C85.5 25.6 83.7 26.5 79.8 28.9C78.2 29.9 76.1 31.1 75.1 31.6C72.7 33.0 70.7 34.3 68.5 36.1C67.5 37.0 65.5 38.5 64.1 39.6C59.3 43.2 57.4 45.1 54.0 49.5C50.5 54.1 50.1 56.3 52.2 58.6C53.6 60.1 51.6 60.0 94.6 60.0C141.8 59.9 137.7 59.7 143.6 63.5C145.5 64.6 147.7 66.1 148.7 66.7C151.0 68.1 154.0 70.9 156.3 73.5C159.4 77.1 161.6 78.3 162.1 76.7Z"/></g>
<path fill="#000" d="M66.56092436974791 41.0H62.85714285714286V23.62955182072829H57.0V20.5H72.41806722689076V23.62955182072829H66.56092436974791ZM81.68323996265174 25.15126050420168Q87.54038281979459 25.15126050420168 87.54038281979459 30.549019607843135V41.0H84.95634920634922L84.26727357609711 38.846638655462186H84.15242763772176Q83.1188141923436 40.10994397759104 82.01342203548086 40.69852941176471Q80.90802987861812 41.287114845938376 78.95564892623717 41.287114845938376Q76.85971055088703 41.287114845938376 75.48155929038282 40.12429971988796Q74.10340802987862 38.96148459383753 74.10340802987862 36.49229691876751Q74.10340802987862 31.754901960784313 81.30999066293185 31.496498599439775L83.92273576097107 31.410364145658264V30.75Q83.92273576097107 29.170868347338935 83.20494864612513 28.52485994397759Q82.48716153127918 27.878851540616246 81.22385620915034 27.878851540616246Q80.10410830999066 27.878851540616246 78.99871615312793 28.237745098039216Q77.89332399626518 28.596638655462186 76.85971055088703 29.056022408963585L75.7686741363212 26.52941176470588Q76.9171335200747 25.926470588235293 78.42448646125118 25.53886554621849Q79.93183940242764 25.15126050420168 81.68323996265174 25.15126050420168ZM82.02777777777779 33.707282913165265Q79.67343604108311 33.79341736694678 78.75466853408031 34.482492997198875Q77.83590102707751 35.17156862745098 77.83590102707751 36.406162464986Q77.83590102707751 37.52591036414566 78.49626517273578 38.042717086834735Q79.15662931839404 38.55952380952381 80.19024276377218 38.55952380952381Q81.76937441643325 38.55952380952381 82.84605508870216 37.655112044817926Q83.92273576097107 36.75070028011204 83.92273576097107 34.970588235294116V33.64985994397759ZM95.62838468720823 29.544117647058822Q95.62838468720823 30.2906162464986 95.57096171802056 31.123249299719888Q95.51353874883287 31.955882352941174 95.4561157796452 32.70238095238095H95.54225023342671Q95.88678804855276 32.18557422969188 96.40359477124184 31.525210084033617Q96.92040149393091 30.86484593837535 97.37978524743232 30.348039215686274L101.97362278244633 25.438375350140056H106.07936507936509L99.84897292250234 32.15686274509804L106.48132586367882 41.0H102.2607376283847L97.43720821662 34.338935574229694L95.62838468720823 35.831932773109244V41.0H92.03944911297853V19.179271708683473H95.62838468720823ZM115.40196078431374 25.15126050420168Q121.25910364145659 25.15126050420168 121.25910364145659 30.549019607843135V41.0H118.67507002801122L117.98599439775911 38.846638655462186H117.87114845938376Q116.83753501400561 40.10994397759104 115.73214285714286 40.69852941176471Q114.62675070028013 41.287114845938376 112.67436974789918 41.287114845938376Q110.57843137254903 41.287114845938376 109.20028011204482 40.12429971988796Q107.82212885154063 38.96148459383753 107.82212885154063 36.49229691876751Q107.82212885154063 31.754901960784313 115.02871148459386 31.496498599439775L117.64145658263307 31.410364145658264V30.75Q117.64145658263307 29.170868347338935 116.92366946778714 28.52485994397759Q116.20588235294119 27.878851540616246 114.94257703081234 27.878851540616246Q113.82282913165267 27.878851540616246 112.71743697478993 28.237745098039216Q111.61204481792718 28.596638655462186 110.57843137254903 29.056022408963585L109.4873949579832 26.52941176470588Q110.6358543417367 25.926470588235293 112.14320728291318 25.53886554621849Q113.65056022408965 25.15126050420168 115.40196078431374 25.15126050420168ZM115.74649859943979 33.707282913165265Q113.39215686274511 33.79341736694678 112.47338935574231 34.482492997198875Q111.55462184873952 35.17156862745098 111.55462184873952 36.406162464986Q111.55462184873952 37.52591036414566 112.21498599439778 38.042717086834735Q112.87535014005604 38.55952380952381 113.90896358543418 38.55952380952381Q115.48809523809526 38.55952380952381 116.56477591036416 37.655112044817926Q117.64145658263307 36.75070028011204 117.64145658263307 34.970588235294116V33.64985994397759ZM123.4325396825397 25.438375350140056H127.30859010270777L130.4094304388422 34.31022408963585Q130.6965452847806 35.14285714285714 130.94059290382822 35.975490196078425Q131.18464052287584 36.80812324929972 131.29948646125118 37.554621848739494H131.41433239962655Q131.52917833800188 36.92296918767507 131.80193744164336 36.03291316526611Q132.0746965452848 35.14285714285714 132.36181139122317 34.31022408963585L135.34780578898227 25.438375350140056H139.16643323996266L132.6776377217554 42.693977591036415Q131.73015873015873 45.163165266106446 130.30894024276378 46.52696078431373Q128.88772175536883 47.89075630252101 126.33239962651729 47.89075630252101Q125.61461251167135 47.89075630252101 125.08345004668536 47.818977591036415Q124.55228758169936 47.747198879551824 124.17903828197947 47.661064425770306V44.78991596638655Q124.46615312791785 44.84733893557423 124.92553688141925 44.904761904761905Q125.38492063492065 44.96218487394958 125.87301587301589 44.96218487394958Q127.19374416433241 44.96218487394958 127.9402427637722 44.201330532212886Q128.68674136321198 43.44047619047619 129.14612511671336 42.26330532212885L129.66293183940243 40.94257703081232ZM147.97222222222223 25.15126050420168Q153.8293650793651 25.15126050420168 153.8293650793651 30.549019607843135V41.0H151.24533146591972L150.55625583566763 38.846638655462186H150.44140989729226Q149.40779645191412 40.10994397759104 148.30240429505136 40.69852941176471Q147.19701213818863 41.287114845938376 145.24463118580766 41.287114845938376Q143.14869281045753 41.287114845938376 141.77054154995335 40.12429971988796Q140.39239028944914 38.96148459383753 140.39239028944914 36.49229691876751Q140.39239028944914 31.754901960784313 147.59897292250236 31.496498599439775L150.21171802054155 31.410364145658264V30.75Q150.21171802054155 29.170868347338935 149.4939309056956 28.52485994397759Q148.7761437908497 27.878851540616246 147.51283846872084 27.878851540616246Q146.39309056956117 27.878851540616246 145.28769841269843 28.237745098039216Q144.18230625583567 28.596638655462186 143.14869281045753 29.056022408963585L142.0576563958917 26.52941176470588Q143.20611577964522 25.926470588235293 144.71346872082168 25.53886554621849Q146.22082166199814 25.15126050420168 147.97222222222223 25.15126050420168ZM148.31676003734827 33.707282913165265Q145.9624183006536 33.79341736694678 145.0436507936508 34.482492997198875Q144.12488328664801 35.17156862745098 144.12488328664801 36.406162464986Q144.12488328664801 37.52591036414566 144.78524743230628 38.042717086834735Q145.44561157796454 38.55952380952381 146.47922502334268 38.55952380952381Q148.05835667600374 38.55952380952381 149.13503734827265 37.655112044817926Q150.21171802054155 36.75070028011204 150.21171802054155 34.970588235294116V33.64985994397759ZM174.97245564892626 23.342436974789916Q172.187441643324 23.342436974789916 170.5795985060691 25.323529411764703Q168.9717553688142 27.304621848739494 168.9717553688142 30.778711484593835Q168.9717553688142 34.252801120448176 170.4934640522876 36.20518207282913Q172.01517273576098 38.15756302521008 175.0873015873016 38.15756302521008Q176.40802987861812 38.15756302521008 177.64262371615314 37.870448179271705Q178.87721755368815 37.583333333333336 180.08309990662934 37.181372549019606V40.339635854341736Q178.87721755368815 40.82773109243698 177.57084500466857 41.05742296918768Q176.26447245564896 41.287114845938376 174.59920634920636 41.287114845938376Q171.38352007469658 41.287114845938376 169.28758169934645 39.98074229691876Q167.1916433239963 38.674369747899156 166.15802987861815 36.30567226890756Q165.12441643324 33.936974789915965 165.12441643324 30.75Q165.12441643324 27.649159663865547 166.2728758169935 25.280462184873947Q167.421335200747 22.91176470588235 169.61776377217558 21.562324929971986Q171.81419234360413 20.212885154061624 175.00116713352008 20.212885154061624Q176.55158730158732 20.212885154061624 178.08765172735764 20.543067226890756Q179.62371615312793 20.873249299719888 180.91573295985063 21.504901960784313L179.6524276377218 24.519607843137255Q178.61881419234362 24.031512605042014 177.47035480859012 23.686974789915965Q176.3218954248366 23.342436974789916 174.97245564892626 23.342436974789916ZM190.61157796451914 25.15126050420168Q196.468720821662 25.15126050420168 196.468720821662 30.549019607843135V41.0H193.88468720821663L193.19561157796454 38.846638655462186H193.08076563958917Q192.04715219421104 40.10994397759104 190.94176003734827 40.69852941176471Q189.83636788048554 41.287114845938376 187.88398692810458 41.287114845938376Q185.78804855275445 41.287114845938376 184.40989729225026 40.12429971988796Q183.03174603174605 38.96148459383753 183.03174603174605 36.49229691876751Q183.03174603174605 31.754901960784313 190.23832866479927 31.496498599439775L192.85107376283847 31.410364145658264V30.75Q192.85107376283847 29.170868347338935 192.13328664799252 28.52485994397759Q191.4154995331466 27.878851540616246 190.15219421101776 27.878851540616246Q189.03244631185808 27.878851540616246 187.92705415499535 28.237745098039216Q186.82166199813258 28.596638655462186 185.78804855275445 29.056022408963585L184.69701213818863 26.52941176470588Q185.84547152194213 25.926470588235293 187.3528244631186 25.53886554621849Q188.86017740429506 25.15126050420168 190.61157796451914 25.15126050420168ZM190.9561157796452 33.707282913165265Q188.60177404295052 33.79341736694678 187.68300653594773 34.482492997198875Q186.76423902894493 35.17156862745098 186.76423902894493 36.406162464986Q186.76423902894493 37.52591036414566 187.4246031746032 38.042717086834735Q188.08496732026146 38.55952380952381 189.1185807656396 38.55952380952381Q190.69771241830065 38.55952380952381 191.77439309056956 37.655112044817926Q192.85107376283847 36.75070028011204 192.85107376283847 34.970588235294116V33.64985994397759ZM208.97829131652662 25.15126050420168Q209.40896358543418 25.15126050420168 209.89705882352942 25.194327731092436Q210.38515406162466 25.23739495798319 210.7296918767507 25.323529411764703L210.35644257703083 28.711484593837532Q210.0119047619048 28.62535014005602 209.56687675070032 28.582282913165265Q209.12184873949582 28.53921568627451 208.60504201680675 28.53921568627451Q207.6001400560224 28.53921568627451 206.6670168067227 29.01295518207283Q205.733893557423 29.48669467787115 205.1309523809524 30.462885154061624Q204.5280112044818 31.4390756302521 204.5280112044818 32.932072829131656V41.0H200.88165266106444V25.438375350140056H203.6953781512605L204.21218487394958 28.137254901960784H204.3844537815126Q205.07352941176472 26.90266106442577 206.265056022409 26.026960784313726Q207.45658263305324 25.15126050420168 208.97829131652662 25.15126050420168ZM229.4610177404295 29.745098039215684H237.21311858076564V40.167366946778714Q235.5765639589169 40.68417366946779 233.85387488328666 40.985644257703086Q232.1311858076564 41.287114845938376 229.94911297852474 41.287114845938376Q225.29785247432307 41.287114845938376 222.7999533146592 38.53081232492997Q220.30205415499535 35.77450980392157 220.30205415499535 30.72128851540616Q220.30205415499535 27.534313725490193 221.55100373482728 25.165616246498598Q222.7999533146592 22.796918767507 225.1830065359477 21.504901960784313Q227.56605975723622 20.212885154061624 230.9827264239029 20.212885154061624Q232.64799253034548 20.212885154061624 234.21276844070962 20.557422969187673Q235.77754435107377 20.901960784313722 237.06956115779644 21.447478991596636L235.8062558356676 24.462184873949578Q234.8013538748833 24.00280112044818 233.53804855275445 23.65826330532213Q232.27474323062557 23.313725490196077 230.8965919701214 23.313725490196077Q228.80065359477123 23.313725490196077 227.27894491129786 24.23249299719888Q225.75723622782448 25.15126050420168 224.9389589169001 26.830882352941174Q224.12068160597573 28.51050420168067 224.12068160597573 30.778711484593835Q224.12068160597573 32.96078431372549 224.75233426704017 34.62605042016807Q225.38398692810458 36.29131652661064 226.7621381886088 37.23879551820728Q228.14028944911297 38.18627450980392 230.35107376283847 38.18627450980392Q231.4421101774043 38.18627450980392 232.18860877684406 38.07142857142857Q232.93510737628384 37.95658263305322 233.5954715219421 37.813025210084035V32.87464985994398H229.4610177404295ZM249.80882352941177 25.15126050420168Q250.23949579831933 25.15126050420168 250.72759103641457 25.194327731092436Q251.2156862745098 25.23739495798319 251.56022408963585 25.323529411764703L251.18697478991598 28.711484593837532Q250.84243697478993 28.62535014005602 250.39740896358546 28.582282913165265Q249.95238095238096 28.53921568627451 249.4355742296919 28.53921568627451Q248.43067226890756 28.53921568627451 247.49754901960785 29.01295518207283Q246.56442577030813 29.48669467787115 245.96148459383755 30.462885154061624Q245.35854341736695 31.4390756302521 245.35854341736695 32.932072829131656V41.0H241.71218487394958V25.438375350140056H244.52591036414566L245.04271708683473 28.137254901960784H245.21498599439775Q245.90406162464987 26.90266106442577 247.09558823529414 26.026960784313726Q248.2871148459384 25.15126050420168 249.80882352941177 25.15126050420168ZM268.2329598506069 33.19047619047619Q268.2329598506069 37.06652661064426 266.2231559290383 39.17682072829132Q264.21335200746967 41.287114845938376 260.76797385620915 41.287114845938376Q258.64332399626517 41.287114845938376 256.9780578898226 40.339635854341736Q255.31279178338002 39.3921568627451 254.35095704948645 37.58333333333333Q253.38912231559289 35.77450980392157 253.38912231559289 33.19047619047619Q253.38912231559289 29.314425770308123 255.3845704948646 27.232843137254903Q257.3800186741363 25.15126050420168 260.85410830999064 25.15126050420168Q263.00746965452845 25.15126050420168 264.672735760971 26.0843837535014Q266.33800186741365 27.017507002801118 267.28548085901025 28.811974789915965Q268.2329598506069 30.606442577030812 268.2329598506069 33.19047619047619ZM257.1216153127918 33.19047619047619Q257.1216153127918 35.65966386554622 257.9973155929038 37.05217086834734Q258.87301587301585 38.44467787114846 260.8253968253968 38.44467787114846Q262.74906629318394 38.44467787114846 263.624766573296 37.05217086834734Q264.500466853408 35.65966386554622 264.500466853408 33.19047619047619Q264.500466853408 30.72128851540616 263.624766573296 29.35749299719888Q262.74906629318394 27.993697478991596 260.796685340803 27.993697478991596Q258.87301587301585 27.993697478991596 257.9973155929038 29.35749299719888Q257.1216153127918 30.72128851540616 257.1216153127918 33.19047619047619ZM285.76704014939304 25.438375350140056V41.0H282.92460317460313L282.40779645191407 38.990196078431374H282.23552754435104Q281.48902894491124 40.19607843137255 280.1683006535947 40.741596638655466Q278.8475723622782 41.287114845938376 277.3832866479925 41.287114845938376Q274.7705415499533 41.287114845938376 273.29190009337066 39.93767507002801Q271.813258636788 38.588235294117645 271.813258636788 35.602240896358545V25.438375350140056H275.4596171802054V34.85574229691877Q275.4596171802054 38.32983193277311 278.3020541549953 38.32983193277311Q280.48412698412693 38.32983193277311 281.3024042950513 36.96603641456583Q282.1206816059757 35.602240896358545 282.1206816059757 33.01820728291317V25.438375350140056ZM298.47759103641454 25.15126050420168Q301.23389355742296 25.15126050420168 302.8848039215686 27.175420168067227Q304.5357142857143 29.199579831932773 304.5357142857143 33.19047619047619Q304.5357142857143 37.181372549019606 302.82738095238096 39.23424369747899Q301.1190476190476 41.287114845938376 298.39145658263305 41.287114845938376Q296.66876750700277 41.287114845938376 295.5920868347339 40.641106442577026Q294.51540616246496 39.995098039215684 293.9124649859944 39.19117647058823H293.7401960784314Q293.79761904761904 39.70798319327731 293.8550420168067 40.411414565826334Q293.9124649859944 41.11484593837535 293.9124649859944 41.77521008403362V47.89075630252101H290.26610644257704V25.438375350140056H293.22338935574226L293.7401960784314 27.47689075630252H293.9124649859944Q294.5441176470588 26.52941176470588 295.6207983193277 25.84033613445378Q296.6974789915966 25.15126050420168 298.47759103641454 25.15126050420168ZM297.4152661064426 28.07983193277311Q295.49159663865544 28.07983193277311 294.71638655462186 29.22829131652661Q293.94117647058823 30.376750700280112 293.9124649859944 32.70238095238095V33.161764705882355Q293.9124649859944 35.65966386554622 294.6589635854342 36.98039215686275Q295.40546218487395 38.30112044817927 297.4726890756302 38.30112044817927Q299.1379551820728 38.30112044817927 299.9705882352941 36.922969187675065Q300.8032212885154 35.54481792717087 300.8032212885154 33.13305322128851Q300.8032212885154 30.72128851540616 299.9705882352941 29.400560224089638Q299.1379551820728 28.07983193277311 297.4152661064426 28.07983193277311Z"/>
</svg>